<svg width="41" height="40" viewBox="0 0 41 40" fill="none" xmlns="http://www.w3.org/2000/svg">
<path d="M20.3 6.25L9.675 14.0625V32.0312H30.925V14.0625L20.3 6.25Z" fill="#528D6B" stroke="#528D6B" stroke-width="0.9375"/>
<path d="M8.89375 14.8438L20.3 5.46875L31.7063 14.8438" stroke="#528D6B" stroke-width="1.5625" stroke-linecap="round"/>
<path d="M18.2688 32.0312V23.4375H22.3313V32.0312" stroke="white" stroke-width="0.9375" stroke-linecap="round"/>
<path d="M15.5344 17.1875H13.1906C12.9749 17.1875 12.8 17.3624 12.8 17.5781V19.9219C12.8 20.1376 12.9749 20.3125 13.1906 20.3125H15.5344C15.7501 20.3125 15.925 20.1376 15.925 19.9219V17.5781C15.925 17.3624 15.7501 17.1875 15.5344 17.1875Z" stroke="white" stroke-width="0.78125"/>
<path d="M27.4094 17.1875H25.0656C24.8499 17.1875 24.675 17.3624 24.675 17.5781V19.9219C24.675 20.1376 24.8499 20.3125 25.0656 20.3125H27.4094C27.6251 20.3125 27.8 20.1376 27.8 19.9219V17.5781C27.8 17.3624 27.6251 17.1875 27.4094 17.1875Z" stroke="white" stroke-width="0.78125"/>
<path d="M25.3 9.375V6.25H27.6438V12.5" fill="#528D6B"/>
<path d="M25.3 9.375V6.25H27.6438V12.5" stroke="#528D6B" stroke-width="1.17188"/>
<path d="M20.3 35.625C28.9295 35.625 35.925 28.6294 35.925 20C35.925 11.3706 28.9295 4.375 20.3 4.375C11.6706 4.375 4.675 11.3706 4.675 20C4.675 28.6294 11.6706 35.625 20.3 35.625Z" stroke="#528D6B" stroke-width="1.5625"/>
</svg>
